<svg width="496" height="317" viewBox="0 0 496 317" fill="none" xmlns="http://www.w3.org/2000/svg">
<path fill-rule="evenodd" clip-rule="evenodd" d="M180.282 216.852C180.282 210.743 175.32 205.783 169.211 205.783H11.0707C4.96058 205.783 -6.10352e-05 210.743 -6.10352e-05 216.852V304.61C-6.10352e-05 310.72 4.96058 315.68 11.0707 315.68H169.211C175.32 315.68 180.282 310.72 180.282 304.61V216.852Z" fill="#6EE7B7"/>
<path fill-rule="evenodd" clip-rule="evenodd" d="M31.0228 294.182H12.418V307.335H31.0228V294.182ZM98.3676 269.603H12.375V288.265H98.3676V269.603ZM166.811 269.603H122.672V288.265H166.811V269.603Z" fill="white"/>
<path d="M180.281 236.39H-0.00012207V262.21H180.281V236.39Z" fill="black"/>
<path fill-rule="evenodd" clip-rule="evenodd" d="M28.4977 281.518C28.4257 280.334 28.559 279.026 28.8226 277.806C29.2307 275.919 29.9676 274.254 30.6544 273.517C31.2488 272.88 31.8988 272.748 32.4404 272.931C33.2151 273.192 33.673 273.886 33.7575 274.872C33.8788 276.285 33.1551 278.428 32.8873 279.041C32.2666 280.456 31.4787 281.516 30.5717 282.35C30.7011 282.963 30.922 283.488 31.3362 283.8C31.7755 284.132 32.405 284.159 33.2615 283.91C33.7155 283.778 34.6494 283.192 35.5557 282.47C35.4031 281.557 35.5642 280.583 35.922 279.858C36.4734 278.743 37.4502 278.25 38.3577 278.555C38.9736 278.762 39.3084 279.119 39.4815 279.504C39.7075 280.01 39.6633 280.683 39.2399 281.411C38.956 281.899 38.4825 282.448 37.9228 282.985C38.202 283.21 38.6128 283.319 39.1661 283.31C39.852 283.297 40.8921 282.77 42.0346 282.165C44.0671 281.091 46.3332 279.704 47.6603 279.346C48.8114 279.033 49.548 279.412 49.8531 280.063C50.0914 280.571 50.314 280.94 50.5439 281.184C50.6547 281.303 50.7504 281.386 50.8614 281.408C51.0101 281.435 51.1539 281.364 51.3108 281.291C51.5134 281.193 51.7201 281.064 51.9359 280.92C53.4329 279.927 55.2401 278.538 57.7087 279.377C58.7283 279.724 59.0063 280.666 58.8266 281.83C58.7756 282.162 58.6943 282.511 58.6441 282.834C58.6365 282.885 58.6302 282.946 58.626 283.005C58.7456 282.997 58.8774 282.975 59.0178 282.948C59.3963 282.88 59.814 282.76 60.236 282.629C61.2375 282.321 62.2614 281.977 62.9619 281.933C70.3916 281.45 77.8711 281.574 85.2922 280.94C85.8292 280.893 86.3022 281.293 86.3481 281.83C86.3943 282.367 85.9954 282.839 85.4587 282.885C78.0241 283.522 70.5315 283.398 63.0884 283.881C62.3646 283.927 61.2499 284.384 60.2365 284.664C59.3197 284.921 58.4617 285.028 57.875 284.877C56.8371 284.606 56.5266 283.69 56.7229 282.482C56.7685 282.201 56.8352 281.904 56.8835 281.616C56.9052 281.486 56.9157 281.298 56.9201 281.176C56.0233 280.925 55.2718 281.164 54.6113 281.516C54.0282 281.828 53.5046 282.223 53.0155 282.548C52.1277 283.136 51.2893 283.473 50.5017 283.327C49.7882 283.192 48.9925 282.66 48.2483 281.223C48.1194 281.252 47.9505 281.296 47.8121 281.347C47.3505 281.52 46.8072 281.789 46.2204 282.099C44.2822 283.124 41.9145 284.574 40.3209 285.06C39.9028 285.189 39.5249 285.255 39.2032 285.262C37.8935 285.287 37.005 284.862 36.4207 284.254C35.3711 285.04 34.3255 285.636 33.8048 285.785C32.1758 286.258 30.9969 285.99 30.1614 285.36C29.6034 284.94 29.1851 284.332 28.9063 283.59C28.6293 283.759 28.3454 283.917 28.0559 284.066C26.2619 284.989 24.2323 285.57 22.2516 286.566C21.7703 286.807 21.183 286.612 20.9411 286.131C20.6992 285.648 20.8938 285.062 21.3753 284.821C22.9741 284.017 24.6038 283.481 26.1189 282.821C26.9597 282.455 27.764 282.05 28.4977 281.518ZM31.8202 275.206C31.549 275.643 31.2937 276.246 31.074 276.932C30.9442 277.337 30.828 277.771 30.7313 278.218C30.6525 278.584 30.5859 278.958 30.5358 279.333C30.7389 279.006 30.9271 278.648 31.0992 278.255C31.2812 277.84 31.7455 276.534 31.8129 275.465C31.8185 275.377 31.8212 275.289 31.8202 275.206Z" fill="black"/>
<path d="M495.997 169.963H226.618V315.991H495.997V169.963Z" fill="#E4E4E6"/>
<path fill-rule="evenodd" clip-rule="evenodd" d="M411.408 299.102C412.403 295.463 413.994 291.815 416.202 288.762C416.643 288.152 417.387 286.97 418.241 286.19C419.038 285.463 419.944 285.088 420.819 285.282C421.829 285.504 422.349 286.243 422.458 287.291C422.618 288.847 421.635 291.28 421.254 291.966C419.387 295.342 416.345 298.088 413.112 300.306C412.972 300.903 412.878 301.525 412.92 302.101C412.976 302.836 413.3 303.475 414.201 303.726C416.044 304.238 418.09 303.707 420.046 302.725C420.796 302.348 421.531 301.904 422.236 301.417C422.253 301.112 422.283 300.831 422.313 300.605C422.718 297.374 424.548 294.342 426.747 292.005C427.092 291.638 428.232 290.336 429.166 289.949C429.965 289.616 430.683 289.731 431.207 290.4C431.693 291.02 431.808 291.898 431.578 292.881C431.192 294.532 429.816 296.565 429.242 297.355C428.096 298.934 426.3 300.807 424.212 302.392C424.229 302.495 424.254 302.593 424.29 302.68C424.312 302.731 424.324 302.787 424.376 302.806C425.262 303.14 426.219 302.77 427.156 302.216C428.914 301.178 430.561 299.397 431.593 298.444C432.04 298.031 432.777 297.259 433.553 296.793C434.303 296.341 435.096 296.173 435.801 296.422C436.666 296.729 436.988 297.325 436.99 298.103C436.99 298.555 436.828 299.12 436.589 299.716C436.376 300.247 436.101 300.816 435.944 301.346C435.893 301.517 435.852 301.679 435.846 301.832C435.839 301.939 435.88 302.024 436.003 302.073C436.553 302.29 437.03 302.145 437.472 301.853C438.109 301.429 438.682 300.745 439.253 300.055C440.084 299.051 440.911 298.033 441.797 297.457C442.577 296.952 443.404 296.746 444.307 296.97C445.601 297.291 445.841 298.365 445.5 299.786C445.394 300.24 445.234 300.737 445.159 301.201C445.117 301.478 445.019 301.764 445.296 301.887C445.724 302.077 446.129 301.988 446.525 301.811C446.902 301.642 447.273 301.393 447.642 301.133C448.322 300.656 448.997 300.136 449.685 299.801C450.263 299.52 450.853 299.358 451.456 299.377C451.969 299.394 452.306 299.556 452.541 299.75C452.828 299.989 452.997 300.304 453.063 300.686C453.099 300.886 453.101 301.114 453.084 301.353C453.075 301.478 453.067 301.674 453.06 301.815C455.055 302.075 457.284 301.451 459.276 301.319C462.67 301.091 466.099 301.291 469.478 300.986C470.015 300.937 470.49 301.333 470.537 301.87C470.586 302.407 470.19 302.883 469.653 302.932C466.259 303.238 462.815 303.038 459.406 303.266C457.239 303.411 454.803 304.052 452.647 303.728C452.153 303.656 451.827 303.464 451.599 303.24C451.341 302.987 451.192 302.674 451.13 302.316C451.087 302.071 451.092 301.796 451.111 301.521C451.115 301.472 451.119 301.41 451.124 301.348C450.74 301.412 450.371 301.627 449.998 301.866C449.357 302.277 448.724 302.791 448.079 303.187C446.939 303.888 445.76 304.229 444.503 303.671C443.595 303.268 443.242 302.586 443.184 301.766C443.144 301.208 443.282 300.556 443.448 299.925C443.525 299.633 443.606 299.348 443.657 299.083C443.67 299.013 443.681 298.917 443.685 298.838C443.272 298.798 442.909 299.028 442.549 299.326C441.931 299.838 441.354 300.581 440.757 301.299C440.056 302.147 439.332 302.961 438.55 303.481C437.572 304.129 436.504 304.37 435.29 303.89C434.194 303.46 433.851 302.686 433.894 301.751C433.922 301.133 434.184 300.4 434.484 299.684C434.629 299.341 434.78 299 434.893 298.683C434.938 298.557 434.979 298.387 435.004 298.259C434.94 298.274 434.874 298.306 434.808 298.335C434.629 298.412 434.452 298.527 434.282 298.653C433.734 299.053 433.24 299.58 432.916 299.88C431.812 300.899 430.031 302.784 428.149 303.897C426.658 304.779 425.096 305.167 423.685 304.632C423.155 304.432 422.78 304.048 422.543 303.552C422.013 303.886 421.471 304.195 420.924 304.47C418.503 305.685 415.957 306.241 413.679 305.608C411.589 305.026 410.939 303.439 410.971 301.689C410.753 301.821 410.538 301.949 410.323 302.077C408.921 302.904 407.395 303.939 405.825 304.429C405.838 304.425 405.878 304.41 405.878 304.41C405.878 304.41 405.629 304.496 405.514 304.506C405.339 304.525 405.19 304.5 405.077 304.461C404.855 304.387 404.693 304.255 404.578 304.093C404.267 303.654 404.372 303.044 404.811 302.733C404.949 302.635 405.105 302.578 405.26 302.559C406.686 302.111 408.056 301.146 409.33 300.396C410.023 299.989 410.717 299.558 411.408 299.102ZM406.127 302.906L406.14 302.923L406.138 302.919L406.127 302.906ZM406.091 302.865L406.106 302.88L406.102 302.876L406.091 302.865ZM406.055 302.829L406.07 302.842L406.064 302.836L406.055 302.829ZM406.019 302.795L406.025 302.802L406.021 302.797L406.019 302.795ZM429.743 291.875C429.558 291.996 429.3 292.173 429.14 292.322C428.705 292.727 428.335 293.168 428.171 293.343C426.519 295.099 425.079 297.285 424.476 299.656C425.776 298.504 426.884 297.281 427.661 296.209C428.085 295.623 429.036 294.263 429.507 292.991C429.634 292.64 429.73 292.299 429.741 291.992C429.743 291.952 429.745 291.913 429.743 291.875ZM414.046 297.204C416.247 295.459 418.222 293.418 419.545 291.022C419.801 290.564 420.423 289.111 420.515 287.941C420.53 287.756 420.53 287.581 420.506 287.424C420.491 287.321 420.5 287.211 420.4 287.189C420.272 287.159 420.15 287.217 420.029 287.283C419.867 287.37 419.711 287.494 419.558 287.632C418.808 288.319 418.173 289.371 417.785 289.906C416.2 292.096 414.96 294.615 414.046 297.204Z" fill="black"/>
<path fill-rule="evenodd" clip-rule="evenodd" d="M376.755 269.442V267.117C376.755 266.229 377.411 265.507 378.219 265.507C379.027 265.507 379.684 266.229 379.684 267.117V270.87C379.684 271.759 379.027 272.481 378.219 272.481H378.217C378.014 272.599 377.782 272.664 377.536 272.664H250.275C250.019 272.664 249.777 272.591 249.567 272.465C248.762 272.46 248.11 271.74 248.11 270.854V267.117C248.11 266.229 248.767 265.507 249.575 265.507C250.383 265.507 251.039 266.229 251.039 267.117V269.442H376.755ZM427.295 234.55V231.524C427.295 230.636 427.951 229.914 428.759 229.914C429.567 229.914 430.224 230.636 430.224 231.524V235.278C430.224 235.627 430.124 235.949 429.953 236.212C429.926 237.076 429.282 237.772 428.488 237.772H249.68C249.663 237.772 249.645 237.772 249.628 237.772C249.609 237.772 249.592 237.772 249.575 237.772C248.767 237.772 248.11 237.049 248.11 236.161V232.424C248.11 231.535 248.767 230.813 249.575 230.813C250.383 230.813 251.039 231.535 251.039 232.424V234.55H427.295ZM248.728 203.929L248.833 200.179C248.859 199.29 249.536 198.592 250.344 198.619C251.151 198.648 251.786 199.392 251.762 200.278L251.703 202.372H427.641V200.23C427.641 199.341 428.298 198.619 429.106 198.619C429.914 198.619 430.57 199.341 430.57 200.23V203.983C430.57 204.871 429.914 205.594 429.106 205.594C429.089 205.594 429.069 205.594 429.052 205.594C429.035 205.594 429.018 205.594 429.001 205.594H250.197C250.19 205.594 250.18 205.594 250.173 205.594H250.165C250.019 205.591 249.88 205.564 249.748 205.518C249.519 205.438 249.314 205.298 249.15 205.116L249.143 205.108L249.135 205.1L249.13 205.094C248.969 204.906 248.847 204.678 248.781 204.423C248.745 204.278 248.725 204.122 248.728 203.964V203.953C248.728 203.945 248.728 203.937 248.728 203.929Z" fill="white"/>
<path fill-rule="evenodd" clip-rule="evenodd" d="M469.176 273.927V265.206C469.176 264.398 469.833 263.742 470.64 263.742C471.448 263.742 472.105 264.398 472.105 265.206V275.392C472.105 276.202 471.451 276.856 470.64 276.856H398.05C397.24 276.856 396.585 276.202 396.585 275.392V265.206C396.585 264.398 397.242 263.742 398.05 263.742C398.858 263.742 399.514 264.398 399.514 265.206V273.927H469.176Z" fill="white"/>
<path fill-rule="evenodd" clip-rule="evenodd" d="M399.514 254.947V265.44C399.514 266.248 398.858 266.904 398.05 266.904C397.242 266.904 396.585 266.248 396.585 265.44V253.482C396.585 252.674 397.24 252.018 398.05 252.018H470.64C471.451 252.018 472.105 252.674 472.105 253.482V265.44C472.105 266.248 471.448 266.904 470.64 266.904C469.833 266.904 469.176 266.248 469.176 265.44V254.947H399.514Z" fill="white"/>
<path fill-rule="evenodd" clip-rule="evenodd" d="M404.564 271.225H412.021C412.828 271.225 413.485 270.569 413.485 269.761C413.485 268.953 412.828 268.296 412.021 268.296H404.564C403.756 268.296 403.099 268.953 403.099 269.761C403.099 270.569 403.756 271.225 404.564 271.225ZM430.405 271.225H437.859C438.667 271.225 439.324 270.569 439.324 269.761C439.324 268.953 438.667 268.296 437.859 268.296H430.405C429.597 268.296 428.94 268.953 428.94 269.761C428.94 270.569 429.597 271.225 430.405 271.225ZM417.483 271.225H424.94C425.748 271.225 426.404 270.569 426.404 269.761C426.404 268.953 425.748 268.296 424.94 268.296H417.483C416.675 268.296 416.019 268.953 416.019 269.761C416.019 270.569 416.675 271.225 417.483 271.225ZM443.324 271.225H450.781C451.589 271.225 452.246 270.569 452.246 269.761C452.246 268.953 451.589 268.296 450.781 268.296H443.324C442.516 268.296 441.86 268.953 441.86 269.761C441.86 270.569 442.516 271.225 443.324 271.225ZM456.246 271.225H463.7C464.508 271.225 465.165 270.569 465.165 269.761C465.165 268.953 464.508 268.296 463.7 268.296H456.246C455.438 268.296 454.782 268.953 454.782 269.761C454.782 270.569 455.438 271.225 456.246 271.225Z" fill="white"/>
<path d="M462.043 221.43C473.379 221.43 482.568 212.241 482.568 200.905C482.568 189.57 473.379 180.38 462.043 180.38C450.708 180.38 441.518 189.57 441.518 200.905C441.518 212.241 450.708 221.43 462.043 221.43Z" fill="white"/>
<path fill-rule="evenodd" clip-rule="evenodd" d="M461.36 189.912L461.499 180.388C461.68 180.383 461.86 180.38 462.041 180.38C462.517 180.38 462.985 180.397 463.452 180.429L463.313 189.936C465.06 189.914 466.881 189.77 468.753 189.465C467.523 185.911 466.017 182.85 464.731 180.556C465.573 180.666 466.403 180.827 467.211 181.037C468.382 183.265 469.639 186.006 470.691 189.094C472.795 188.628 474.955 187.952 477.142 187.01C477.601 187.508 478.036 188.03 478.443 188.572C476.02 189.658 473.623 190.434 471.287 190.959C471.431 191.442 471.567 191.93 471.697 192.428C472.407 195.116 472.91 197.993 473.056 200.974L482.563 201.257C482.554 201.916 482.51 202.565 482.439 203.207L473.098 202.929C473.078 206.246 472.588 209.663 471.421 213.071C473.21 213.576 475.029 214.242 476.864 215.099C476.376 215.607 475.863 216.09 475.326 216.546C473.776 215.863 472.241 215.323 470.725 214.901C469.917 216.844 468.875 218.777 467.564 220.676C466.635 220.937 465.678 221.133 464.699 221.26C466.464 219.024 467.804 216.734 468.792 214.425C466.791 213.996 464.838 213.766 462.959 213.691L462.844 221.413C462.578 221.423 462.309 221.43 462.041 221.43C461.655 221.43 461.272 221.418 460.891 221.399L461.006 213.666C458.663 213.7 456.456 213.959 454.438 214.345C455.512 216.556 456.908 218.828 458.685 221.155C457.681 220.991 456.705 220.752 455.758 220.447C454.428 218.516 453.344 216.622 452.475 214.772C450.894 215.155 449.458 215.604 448.204 216.058C447.679 215.577 447.179 215.072 446.708 214.54C448.131 213.996 449.807 213.439 451.692 212.968C450.288 209.475 449.639 206.151 449.517 203.041C449.507 202.768 449.5 202.497 449.497 202.228L441.545 201.992C441.528 201.633 441.518 201.269 441.518 200.905C441.518 200.615 441.523 200.327 441.535 200.039L449.549 200.276C449.771 196.629 450.698 193.319 451.933 190.424C449.385 189.746 447.303 188.95 445.839 188.313C446.256 187.774 446.703 187.259 447.171 186.763C448.582 187.351 450.483 188.045 452.761 188.633C454.413 185.316 456.405 182.648 458.021 180.773C458.992 180.581 459.988 180.456 461.003 180.405C459.456 181.972 456.815 184.976 454.701 189.087C456.713 189.504 458.953 189.819 461.36 189.912ZM471.138 202.87L463.122 202.633L462.988 211.743C465.085 211.823 467.267 212.084 469.505 212.585C470.642 209.321 471.121 206.046 471.138 202.87ZM451.452 202.287C451.455 202.511 451.46 202.738 451.47 202.965C451.584 205.963 452.234 209.163 453.622 212.529C455.88 212.07 458.375 211.757 461.035 211.721L461.172 202.575L451.452 202.287ZM469.361 191.34C467.267 191.699 465.231 191.862 463.283 191.884L463.151 200.681L471.091 200.915C470.947 198.128 470.471 195.438 469.81 192.924C469.668 192.389 469.52 191.86 469.361 191.34ZM453.842 190.888C452.634 193.649 451.721 196.827 451.501 200.334L461.201 200.622L461.331 191.855C458.604 191.752 456.083 191.379 453.842 190.888Z" fill="#E4E4E6"/>
<path fill-rule="evenodd" clip-rule="evenodd" d="M285.229 273.506C285.839 285.667 287.787 296.013 291.068 305.562C293.213 311.871 299.137 316.114 305.801 316.114C305.801 316.121 305.801 316.121 305.801 316.121C311.415 316.121 316.477 312.743 318.63 307.559C322.357 298.603 325.498 287.605 327.746 273.506H285.229Z" fill="#FFC5BE"/>
<path fill-rule="evenodd" clip-rule="evenodd" d="M285.351 279.486C285.31 279.015 285.271 278.541 285.232 278.063L296.289 278.268C296.289 278.268 298.825 286.726 301.148 294.238C304.248 304.253 307.206 310.907 313.616 313.782C313.006 314.219 312.359 314.607 311.685 314.939C309.628 315.691 307.082 316.379 305.527 316.379C305.527 316.379 305.527 316.379 305.527 316.372C305.486 316.372 305.442 316.372 305.4 316.372C305.156 316.37 304.915 316.362 304.673 316.35L304.595 316.345C304.492 316.338 304.387 316.333 304.285 316.323L304.209 316.318L304.133 316.311L304.055 316.304C304.031 316.301 304.007 316.299 303.98 316.296L303.938 316.291C303.848 316.284 303.76 316.272 303.67 316.262C303.621 316.257 303.572 316.25 303.523 316.245L303.445 316.235C303.321 316.216 303.194 316.199 303.069 316.179L302.994 316.167C302.969 316.162 302.942 316.157 302.918 316.152L302.842 316.14C302.818 316.135 302.793 316.133 302.767 316.128L302.696 316.113C302.613 316.099 302.53 316.084 302.447 316.067C302.039 315.984 301.636 315.886 301.241 315.772C301.109 315.735 300.98 315.696 300.848 315.654C300.677 315.601 300.506 315.542 300.338 315.484C300.274 315.462 300.211 315.437 300.148 315.415L300.006 315.361C299.025 314.988 298.088 314.519 297.206 313.963L297.082 313.882C297.033 313.851 296.984 313.819 296.938 313.787L296.833 313.716L296.708 313.633L296.669 313.607C296.254 313.318 295.854 313.013 295.471 312.686C295.337 312.574 295.205 312.459 295.076 312.342L294.966 312.24L294.856 312.14C294.819 312.105 294.785 312.071 294.748 312.037L294.658 311.949C294.16 311.463 293.694 310.944 293.264 310.394C293.042 310.109 292.827 309.816 292.625 309.516C292.561 309.418 292.498 309.323 292.435 309.225C292.356 309.103 292.281 308.979 292.205 308.854L292.181 308.815L292.156 308.774C291.983 308.483 291.819 308.185 291.663 307.883L291.629 307.814L291.605 307.763C291.397 307.346 291.207 306.919 291.033 306.479L291.007 306.406C290.968 306.304 290.929 306.201 290.892 306.098C290.858 306.006 290.826 305.913 290.794 305.82L290.721 305.608L290.699 305.54L290.65 305.398L290.621 305.315L290.577 305.183L290.548 305.098L290.506 304.971L290.477 304.883L290.433 304.754L290.406 304.668L290.362 304.531L290.335 304.456L290.282 304.285L290.267 304.243L290.196 304.029L290.179 303.97L290.128 303.816L290.104 303.736L290.06 303.602L290.033 303.514L289.991 303.384L289.964 303.296L289.923 303.167L289.896 303.079L289.855 302.945L289.83 302.864L289.781 302.711L289.762 302.65L289.698 302.432L289.684 302.391L289.632 302.218L289.608 302.139L289.567 302L289.542 301.915L289.501 301.783L289.476 301.693L289.437 301.563L289.41 301.476L289.371 301.341L289.347 301.256L289.305 301.112L289.283 301.039L289.222 300.826L289.22 300.821L289.159 300.602L289.139 300.531L289.095 300.384L289.073 300.299L289.034 300.165L289.01 300.075L288.973 299.943L288.949 299.852L288.912 299.721L288.888 299.633L288.849 299.491L288.829 299.411L288.781 299.237L288.768 299.191L288.71 298.971L288.693 298.908L288.651 298.749L288.629 298.666L288.593 298.527L288.568 298.437L288.534 298.305L288.512 298.212L288.478 298.08L288.454 297.99L288.419 297.851L288.397 297.765L288.356 297.609L288.341 297.543L288.285 297.319L288.273 297.275L288.229 297.097L288.209 297.016L288.175 296.872L288.153 296.782L288.119 296.648L288.097 296.552L288.065 296.421L288.043 296.325L288.009 296.191L287.99 296.101L287.956 295.952L287.936 295.874L287.887 295.666L287.882 295.647L287.831 295.422L287.814 295.344L287.78 295.198L287.76 295.105L287.729 294.968L287.707 294.873L287.677 294.739L287.655 294.644L287.626 294.509L287.607 294.414L287.575 294.273L287.555 294.185L287.519 294.016L287.506 293.955L287.458 293.731L287.443 293.658L287.409 293.501L287.389 293.409L287.362 293.269L287.34 293.172L287.314 293.038L287.294 292.937L287.267 292.806L287.245 292.706L287.218 292.571L287.199 292.474L287.17 292.325L287.153 292.242L287.109 292.015L287.096 291.949L287.065 291.783L287.045 291.688L287.018 291.549L286.999 291.446L286.974 291.317L286.955 291.209L286.93 291.08L286.911 290.975L286.886 290.843L286.867 290.741L286.843 290.604L286.825 290.504L286.794 290.333L286.782 290.272L286.774 290.226L286.742 290.043L286.723 289.94L286.701 289.806L286.681 289.696L286.659 289.569L286.64 289.457L286.618 289.332L286.598 289.22L286.579 289.096L286.559 288.981L286.537 288.856L286.52 288.744L286.498 288.607L286.481 288.505L286.445 288.278L286.425 288.166L286.406 288.039L286.386 287.919L286.369 287.8L286.35 287.677L286.33 287.56L286.313 287.438L286.293 287.321L286.274 287.197L286.257 287.082L286.237 286.955L286.223 286.843L286.203 286.713L286.188 286.611L286.169 286.484L286.149 286.352L286.135 286.247L286.115 286.113L286.101 286.005L286.081 285.871L286.066 285.764L286.047 285.63L286.035 285.522L286.015 285.386L286 285.283L285.981 285.141L285.969 285.046L285.949 284.897L285.942 284.834L285.917 284.663L285.893 284.463L285.888 284.431L285.869 284.27L285.856 284.187L285.839 284.033L285.827 283.943L285.808 283.789L285.798 283.699L285.778 283.545L285.769 283.457L285.749 283.299L285.739 283.22L285.72 283.05L285.715 283.008L285.69 282.813C285.683 282.735 285.673 282.657 285.666 282.579L285.642 282.378L285.639 282.339L285.617 282.159L285.612 282.093L285.593 281.917L285.586 281.849L285.566 281.673L285.559 281.605L285.539 281.424L285.534 281.368L285.515 281.175L285.512 281.156C285.481 280.85 285.451 280.548 285.422 280.24L285.42 280.218L285.4 280.011L285.395 279.969L285.378 279.767L285.373 279.725L285.356 279.518L285.351 279.486Z" fill="#FFC2BA"/>
<path fill-rule="evenodd" clip-rule="evenodd" d="M153.032 274.155C153.642 286.315 155.59 296.662 158.871 306.21C161.016 312.52 166.94 316.762 173.604 316.762C173.604 316.769 173.604 316.769 173.604 316.769C179.217 316.769 184.28 313.391 186.433 308.207C190.16 299.252 193.301 288.253 195.549 274.155H153.032Z" fill="#FFC3BB"/>
<path fill-rule="evenodd" clip-rule="evenodd" d="M153.12 275.751C153.088 275.221 153.059 274.692 153.032 274.155H195.549C195.344 275.434 195.134 276.684 194.917 277.911L187.968 277.797C186.682 281.919 178.895 306.818 175.071 310.821C171.939 314.097 170.311 315.185 168.695 315.969C164.209 314.478 160.545 310.985 158.922 306.359L158.919 306.354L158.9 306.293L158.871 306.21C158.385 304.797 157.928 303.364 157.501 301.912C157.443 301.717 157.387 301.522 157.33 301.324C157.174 300.787 157.025 300.245 156.876 299.698C156.847 299.583 156.815 299.469 156.784 299.352C156.613 298.705 156.444 298.051 156.283 297.392C156.147 296.835 156.012 296.274 155.885 295.71C155.705 294.926 155.534 294.136 155.37 293.335C155.256 292.776 155.146 292.21 155.039 291.641C154.995 291.399 154.948 291.158 154.904 290.914L154.86 290.665C154.797 290.311 154.733 289.954 154.675 289.596C154.565 288.949 154.46 288.295 154.36 287.636L154.321 287.379C154.253 286.935 154.189 286.486 154.126 286.034L154.099 285.834L154.091 285.776C153.872 284.152 153.679 282.5 153.515 280.811L153.491 280.54L153.486 280.496C153.44 279.996 153.393 279.493 153.352 278.985C153.264 277.921 153.186 276.845 153.12 275.751Z" fill="#FFC5BE"/>
<path fill-rule="evenodd" clip-rule="evenodd" d="M356.165 159.983C357.976 159.475 359.465 159.014 359.836 158.783C364.191 156.073 367.867 151.598 369.817 146.52C371.701 141.619 372.172 136.181 369.885 131.37C367.142 135.317 362.79 137.998 358.823 138.311C354.405 138.66 350.158 136.499 348.025 130.248C345.511 122.88 350.407 117.014 357.722 115.544C360.522 114.982 363.727 115.15 366.907 116.286C366.712 114.388 366.241 112.531 365.55 110.743C363.729 106.031 360.493 101.779 356.648 98.4918C355.665 97.6997 355.511 96.2586 356.302 95.2755C357.093 94.2923 358.535 94.1371 359.519 94.9291C364.213 98.4866 368.225 103.238 370.666 108.59C372.289 112.151 373.183 115.98 373.134 119.935C375.165 121.673 377.044 123.943 378.636 126.82C382.621 134.028 382.685 142.442 380.225 150.172C377.806 157.78 372.731 164.599 366.588 168.944C365.819 169.49 362.838 170.847 359.382 172.17C359.802 174.223 360.19 176.361 360.549 178.597C367.237 220.252 366.976 259.167 354.676 298.411C351.188 309.473 340.929 316.998 329.333 316.998C329.331 317 329.331 317 329.331 317C319.033 317 309.877 310.434 306.577 300.676C302.608 288.948 297.956 275.193 297.956 275.193H185.216C185.216 275.193 179.409 291.618 175.077 303.878C172.297 311.743 164.862 317 156.521 317H156.519C146.138 317 137.126 309.844 134.774 299.731C132.098 288.22 129.069 275.193 129.069 275.193H95.1526C91.2158 275.193 87.524 272.892 86.1303 269.211C81.7902 257.746 73.1482 228.249 86.9631 193.821C87.9778 191.294 90.6034 189.783 93.3278 189.783C102.364 189.776 122.323 189.776 122.323 189.776C122.323 189.776 125.341 143.808 166.968 119.569L155.645 97.958C155.645 97.958 174.579 90.499 191.34 112.058C231.287 102.659 266.513 101.648 311.373 114.957C321.874 118.055 331.371 123.866 338.911 131.804C344.159 137.318 348.293 142.842 351.574 149.108C353.339 152.481 354.854 156.068 356.165 159.983ZM365.443 125.822C364.11 124.878 362.69 124.328 361.288 124.153C358.14 123.759 354.791 124.957 355.609 127.908C356.312 130.454 357.998 131.305 359.807 130.744C362.035 130.054 364.242 128.212 365.443 125.822Z" fill="#FFC3BB"/>
<path fill-rule="evenodd" clip-rule="evenodd" d="M184.488 277.207L188.122 266.023C188.298 265.479 188.837 265.135 189.404 265.206C189.972 265.277 190.412 265.74 190.451 266.311L191.046 274.957H185.283L184.488 277.207ZM291.135 274.957L293.02 265.604C293.105 265.189 293.457 264.881 293.881 264.854C294.304 264.825 294.694 265.086 294.831 265.489C296.215 269.575 298.39 275.997 298.39 275.997L298.38 275.999L298.026 274.957H291.135ZM335.095 197.162C335.095 165.605 310.821 139.357 279.358 136.896C256.395 135.078 233.566 135.094 210.871 136.89C179.406 139.346 155.127 165.595 155.127 197.155C155.124 197.155 155.124 197.155 155.124 197.155C155.124 229.862 181.129 256.646 213.824 257.607C234.759 258.23 255.616 258.23 276.395 257.615C309.09 256.653 335.095 229.87 335.095 197.162ZM108.289 189.64C110.232 193.965 112.016 199.838 113.238 207.809C113.443 209.14 112.527 210.387 111.196 210.589C109.864 210.795 108.617 209.879 108.413 208.549C107.042 199.608 104.994 193.628 102.889 189.642L106.946 189.64H108.289ZM117.806 189.64C119.342 192.962 120.724 197.197 121.737 202.596C121.985 203.921 121.112 205.198 119.788 205.444C118.464 205.693 117.187 204.819 116.939 203.496C115.755 197.184 114.069 192.749 112.33 189.64H117.806ZM359.45 171.931C359.872 173.984 355.884 158.694 356.235 159.745C358.044 159.237 359.535 158.776 359.906 158.545C360.172 158.378 360.438 158.206 360.699 158.027C361.7 161.265 362.862 165.414 363.887 170.106C362.642 170.66 361.1 171.299 359.45 171.931ZM369.955 131.132C369.506 132.123 373.519 125.435 373.204 119.697C374.759 121.028 376.226 122.672 377.541 124.661C376.897 127.781 375.488 131.81 372.447 135.742C372.169 136.102 371.81 136.363 371.415 136.518C371.244 134.678 370.778 132.864 369.955 131.132ZM366.975 116.048C367.395 121.202 365.178 126.248 365.513 125.584C364.18 124.639 362.759 124.09 361.356 123.914C361.236 123.899 361.117 123.887 360.997 123.876C362.925 120.694 362.615 117.244 362.088 115.029C363.685 115.132 365.335 115.461 366.975 116.048ZM167.009 119.347L168.813 122.951C169.415 124.155 168.927 125.623 167.724 126.226C166.518 126.829 165.051 126.341 164.448 125.136L162.842 121.93C164.187 121.045 165.576 120.183 167.009 119.347ZM193.104 114.637C193.104 114.637 190.731 110.947 191.41 111.82C193.048 111.434 194.678 111.063 196.304 110.706L197.092 111.821C197.868 112.921 197.605 114.445 196.506 115.223C195.406 116 193.88 115.737 193.104 114.637Z" fill="#FFC5BE"/>
<path d="M91.8441 275.568C99.0506 275.568 104.893 256.446 104.893 232.859C104.893 209.271 99.0506 190.149 91.8441 190.149C84.6377 190.149 78.7956 209.271 78.7956 232.859C78.7956 256.446 84.6377 275.568 91.8441 275.568Z" fill="#FFC5BE"/>
<path fill-rule="evenodd" clip-rule="evenodd" d="M84.6583 214.078V252.177C84.6583 253.522 85.7521 254.618 87.0992 254.618C88.4463 254.618 89.54 253.522 89.54 252.177V214.078C89.54 212.731 88.4463 211.637 87.0992 211.637C85.7521 211.637 84.6583 212.731 84.6583 214.078Z" fill="#D7441E"/>
<path fill-rule="evenodd" clip-rule="evenodd" d="M93.7749 214.078V252.177C93.7749 253.522 94.8686 254.618 96.2157 254.618C97.5629 254.618 98.6566 253.522 98.6566 252.177V214.078C98.6566 212.731 97.5629 211.637 96.2157 211.637C94.8686 211.637 93.7749 212.731 93.7749 214.078Z" fill="#D7441E"/>
<path fill-rule="evenodd" clip-rule="evenodd" d="M131.594 179.079C131.541 180.46 131.384 183.422 132.109 186.09C133.018 189.435 135.149 192.327 139.674 192.583C141.538 192.687 144.095 192.447 146.181 190.428C147.964 188.701 149.565 185.44 149.439 179.121L144.557 179.22C144.643 183.463 143.983 185.761 142.785 186.921C141.889 187.787 140.749 187.753 139.949 187.709C138.013 187.599 137.209 186.241 136.82 184.809C136.247 182.701 136.43 180.356 136.472 179.265L131.594 179.079Z" fill="black"/>
<path d="M298.052 118.519H201.225L203.671 129.277H300.499L298.052 118.519Z" fill="black"/>
<path fill-rule="evenodd" clip-rule="evenodd" d="M209.689 136.885C210.004 136.855 210.314 136.828 210.626 136.804C233.321 135.008 256.15 134.992 279.114 136.81C283.739 137.171 288.208 138.047 292.467 139.378V190.366H209.689V136.885Z" fill="#079774"/>
<path fill-rule="evenodd" clip-rule="evenodd" d="M224.666 135.927C241.525 135.136 258.454 135.329 275.462 136.528C271.176 146.227 261.469 153.002 250.192 153.002C238.683 153.002 228.81 145.946 224.666 135.927Z" fill="#93EACB"/>
<path fill-rule="evenodd" clip-rule="evenodd" d="M236.386 190.414V166.635C236.386 163.799 238.685 161.5 241.519 161.5C244.356 161.5 246.655 163.799 246.655 166.635V190.414H236.386ZM253.536 190.414V172.698C253.536 169.865 255.837 167.563 258.671 167.563C261.505 167.563 263.807 169.865 263.807 172.698V190.414H253.536Z" fill="#93EACB"/>
<path d="M292.467 51.4482H209.689V122.954H292.467V51.4482Z" fill="#93EACB"/>
<path fill-rule="evenodd" clip-rule="evenodd" d="M222.712 123.131C223.817 108.901 235.729 97.6826 250.239 97.6826C264.75 97.6826 276.662 108.901 277.767 123.131H222.712Z" fill="#079774"/>
<path fill-rule="evenodd" clip-rule="evenodd" d="M266.414 51.4482V71.7092C266.414 74.543 264.115 76.8439 261.281 76.8439C258.448 76.8439 256.146 74.543 256.146 71.7092V51.4482H266.414ZM249.265 51.4482V65.6456C249.265 68.4797 246.963 70.7804 244.13 70.7804C241.296 70.7804 238.994 68.4797 238.994 65.6456V51.4482H249.265Z" fill="#079774"/>
<path d="M209.72 215.739C224.123 215.739 235.799 204.18 235.799 189.922C235.799 175.664 224.123 164.105 209.72 164.105C195.317 164.105 183.641 175.664 183.641 189.922C183.641 204.18 195.317 215.739 209.72 215.739Z" fill="#FED9A4"/>
<path fill-rule="evenodd" clip-rule="evenodd" d="M209.863 169.65C221.089 169.65 230.204 178.673 230.204 189.787C230.204 200.901 221.089 209.924 209.863 209.924C209.407 209.924 209.037 210.29 209.037 210.742C209.037 211.193 209.407 211.56 209.863 211.56C222.001 211.56 231.857 201.804 231.857 189.787C231.857 177.77 222.001 168.014 209.863 168.014C209.407 168.014 209.037 168.381 209.037 168.832C209.037 169.283 209.407 169.65 209.863 169.65Z" fill="#FF8A00"/>
<path fill-rule="evenodd" clip-rule="evenodd" d="M209.543 209.924C198.316 209.924 189.201 200.901 189.201 189.787C189.201 178.673 198.316 169.65 209.543 169.65C209.999 169.65 210.37 169.283 210.37 168.832C210.37 168.381 209.999 168.014 209.543 168.014C197.404 168.014 187.55 177.77 187.55 189.787C187.55 201.804 197.404 211.56 209.543 211.56C209.999 211.56 210.37 211.193 210.37 210.742C210.37 210.29 209.999 209.924 209.543 209.924Z" fill="#FF8A00"/>
<path fill-rule="evenodd" clip-rule="evenodd" d="M212.868 215.551L212.334 211.298C212.278 210.85 212.6 210.441 213.053 210.386C213.506 210.33 213.917 210.648 213.975 211.096L214.502 215.305C213.963 215.404 213.418 215.486 212.868 215.551ZM217.744 214.492L216.267 210.176C216.121 209.749 216.353 209.284 216.786 209.139C217.217 208.994 217.686 209.224 217.832 209.651L219.301 213.94C218.79 214.14 218.271 214.324 217.744 214.492ZM195.352 211.458L197.649 207.719C197.885 207.333 198.394 207.211 198.784 207.445C199.174 207.68 199.298 208.183 199.062 208.569L196.758 212.318C196.279 212.046 195.81 211.759 195.352 211.458ZM231.185 204.589L227.389 201.809C227.024 201.54 226.947 201.028 227.218 200.665C227.489 200.302 228.006 200.225 228.373 200.494L232.084 203.213C231.8 203.681 231.499 204.141 231.185 204.589ZM184.943 197.967L189.403 195.98C189.818 195.795 190.309 195.979 190.495 196.39C190.682 196.802 190.497 197.287 190.081 197.472L185.51 199.509C185.305 199.003 185.115 198.489 184.943 197.967ZM235.034 183.659C235.166 184.186 235.283 184.719 235.382 185.258L230.985 186.284C230.542 186.388 230.096 186.115 229.992 185.676C229.886 185.237 230.162 184.796 230.605 184.692L235.034 183.659ZM188.179 175.383L192.108 177.927C192.49 178.174 192.597 178.682 192.348 179.059C192.098 179.437 191.586 179.543 191.204 179.296L187.291 176.762C187.572 176.292 187.87 175.832 188.179 175.383ZM190.743 172.227L193.939 174.553C194.306 174.821 194.385 175.333 194.114 175.697C193.845 176.06 193.326 176.138 192.959 175.871L189.646 173.458C189.998 173.036 190.365 172.626 190.743 172.227ZM224.802 168.856C225.251 169.172 225.691 169.502 226.119 169.845L223.262 173.411C222.977 173.765 222.457 173.824 222.1 173.544C221.743 173.263 221.684 172.748 221.966 172.394L224.802 168.856ZM220.376 166.35C220.88 166.574 221.376 166.814 221.862 167.067L219.848 170.807C219.633 171.206 219.132 171.357 218.729 171.144C218.327 170.932 218.175 170.436 218.39 170.038L220.376 166.35ZM203.88 164.757L205.044 168.863C205.166 169.297 204.91 169.749 204.47 169.871C204.031 169.993 203.574 169.739 203.452 169.304L202.282 165.173C202.808 165.018 203.34 164.879 203.88 164.757Z" fill="#FF8A00"/>
<path d="M278.751 247.648C293.154 247.648 304.829 236.09 304.829 221.832C304.829 207.574 293.154 196.015 278.751 196.015C264.348 196.015 252.672 207.574 252.672 221.832C252.672 236.09 264.348 247.648 278.751 247.648Z" fill="#FED9A4"/>
<path fill-rule="evenodd" clip-rule="evenodd" d="M278.894 201.56C290.12 201.56 299.235 210.583 299.235 221.697C299.235 232.81 290.12 241.833 278.894 241.833C278.438 241.833 278.067 242.2 278.067 242.651C278.067 243.103 278.438 243.469 278.894 243.469C291.032 243.469 300.887 233.713 300.887 221.697C300.887 209.68 291.032 199.924 278.894 199.924C278.438 199.924 278.067 200.29 278.067 200.742C278.067 201.193 278.438 201.56 278.894 201.56Z" fill="#FF8A00"/>
<path fill-rule="evenodd" clip-rule="evenodd" d="M278.574 241.833C267.347 241.833 258.231 232.81 258.231 221.697C258.231 210.583 267.347 201.56 278.574 201.56C279.03 201.56 279.4 201.193 279.4 200.742C279.4 200.29 279.03 199.924 278.574 199.924C266.435 199.924 256.58 209.68 256.58 221.697C256.58 233.713 266.435 243.469 278.574 243.469C279.03 243.469 279.4 243.103 279.4 242.651C279.4 242.2 279.03 241.833 278.574 241.833Z" fill="#FF8A00"/>
<path fill-rule="evenodd" clip-rule="evenodd" d="M281.899 247.461L281.365 243.208C281.309 242.76 281.631 242.351 282.084 242.295C282.536 242.24 282.948 242.558 283.006 243.006L283.533 247.214C282.994 247.313 282.449 247.396 281.899 247.461ZM286.775 246.402L285.298 242.086C285.152 241.659 285.383 241.194 285.816 241.049C286.248 240.904 286.717 241.134 286.862 241.561L288.331 245.849C287.821 246.049 287.302 246.234 286.775 246.402ZM264.383 243.368L266.68 239.629C266.916 239.243 267.425 239.12 267.815 239.355C268.205 239.59 268.329 240.093 268.092 240.479L265.789 244.228C265.31 243.955 264.84 243.668 264.383 243.368ZM300.216 236.499L296.42 233.718C296.055 233.45 295.977 232.937 296.248 232.574C296.519 232.211 297.036 232.135 297.403 232.403L301.115 235.122C300.83 235.591 300.53 236.05 300.216 236.499ZM253.974 229.877L258.434 227.89C258.849 227.705 259.339 227.888 259.526 228.3C259.713 228.712 259.528 229.196 259.111 229.382L254.541 231.418C254.336 230.912 254.146 230.399 253.974 229.877ZM304.064 215.568C304.196 216.095 304.314 216.629 304.413 217.168L300.016 218.194C299.573 218.298 299.127 218.025 299.023 217.586C298.917 217.147 299.193 216.706 299.636 216.602L304.064 215.568ZM257.209 207.292L261.139 209.837C261.521 210.084 261.628 210.591 261.379 210.969C261.129 211.347 260.617 211.453 260.235 211.206L256.322 208.672C256.603 208.202 256.9 207.742 257.209 207.292ZM259.774 204.137L262.97 206.463C263.337 206.731 263.416 207.243 263.145 207.607C262.876 207.97 262.357 208.048 261.99 207.781L258.677 205.367C259.029 204.946 259.396 204.535 259.774 204.137ZM293.832 200.766C294.282 201.082 294.721 201.412 295.149 201.755L292.292 205.321C292.008 205.675 291.488 205.734 291.131 205.453C290.774 205.173 290.714 204.658 290.997 204.304L293.832 200.766ZM289.407 198.26C289.911 198.484 290.407 198.723 290.893 198.977L288.878 202.717C288.664 203.115 288.163 203.266 287.76 203.054C287.358 202.841 287.206 202.346 287.421 201.947L289.407 198.26ZM272.911 196.667L274.074 200.772C274.197 201.207 273.94 201.659 273.501 201.781C273.061 201.903 272.605 201.649 272.483 201.214L271.313 197.083C271.838 196.928 272.371 196.789 272.911 196.667Z" fill="#FF8A00"/>
<path d="M153.066 51.6331C167.469 51.6331 179.145 40.0747 179.145 25.8166C179.145 11.5585 167.469 0 153.066 0C138.663 0 126.987 11.5585 126.987 25.8166C126.987 40.0747 138.663 51.6331 153.066 51.6331Z" fill="#FED9A4"/>
<path fill-rule="evenodd" clip-rule="evenodd" d="M153.21 5.544C164.436 5.544 173.551 14.5671 173.551 25.6809C173.551 36.7948 164.436 45.8178 153.21 45.8178C152.754 45.8178 152.383 46.1843 152.383 46.6357C152.383 47.0872 152.754 47.4536 153.21 47.4536C165.348 47.4536 175.203 37.6977 175.203 25.6809C175.203 13.6642 165.348 3.9082 153.21 3.9082C152.754 3.9082 152.383 4.27467 152.383 4.7261C152.383 5.17754 152.754 5.544 153.21 5.544Z" fill="#FF8A00"/>
<path fill-rule="evenodd" clip-rule="evenodd" d="M152.89 45.8178C141.662 45.8178 132.547 36.7948 132.547 25.6809C132.547 14.5671 141.662 5.544 152.89 5.544C153.346 5.544 153.716 5.17754 153.716 4.7261C153.716 4.27467 153.346 3.9082 152.89 3.9082C140.75 3.9082 130.896 13.6642 130.896 25.6809C130.896 37.6977 140.75 47.4536 152.89 47.4536C153.346 47.4536 153.716 47.0872 153.716 46.6357C153.716 46.1843 153.346 45.8178 152.89 45.8178Z" fill="#FF8A00"/>
<path fill-rule="evenodd" clip-rule="evenodd" d="M156.214 51.4455L155.681 47.1922C155.624 46.7442 155.947 46.3354 156.399 46.2796C156.852 46.224 157.264 46.5425 157.321 46.9905L157.849 51.1987C157.31 51.2976 156.765 51.3801 156.214 51.4455ZM161.091 50.3863L159.613 46.0706C159.468 45.643 159.699 45.1782 160.132 45.0335C160.564 44.8885 161.033 45.118 161.178 45.5455L162.647 49.8337C162.137 50.0336 161.618 50.218 161.091 50.3863ZM138.698 47.3522L140.995 43.6132C141.232 43.2275 141.741 43.1048 142.131 43.3394C142.521 43.574 142.644 44.0775 142.408 44.4632L140.105 48.2122C139.626 47.9398 139.156 47.6527 138.698 47.3522ZM174.532 40.4833L170.736 37.7027C170.371 37.4341 170.293 36.9216 170.564 36.5586C170.835 36.1958 171.352 36.1193 171.719 36.3877L175.43 39.1067C175.146 39.5756 174.846 40.0347 174.532 40.4833ZM128.29 33.8613L132.75 31.8743C133.164 31.689 133.655 31.8728 133.842 32.2844C134.029 32.6961 133.844 33.1807 133.427 33.366L128.857 35.4028C128.652 34.8968 128.462 34.383 128.29 33.8613ZM178.38 19.5527C178.512 20.0798 178.63 20.613 178.729 21.152L174.332 22.1785C173.889 22.2822 173.443 22.0095 173.338 21.5703C173.233 21.1309 173.509 20.6901 173.952 20.5864L178.38 19.5527ZM131.525 11.2768L135.455 13.8211C135.836 14.0683 135.944 14.5756 135.694 14.9535C135.445 15.3312 134.933 15.4373 134.551 15.1902L130.638 12.6561C130.919 12.1863 131.216 11.7263 131.525 11.2768ZM134.09 8.12099L137.286 10.4474C137.652 10.7149 137.732 11.2274 137.461 11.5909C137.191 11.9545 136.673 12.0325 136.306 11.7651L132.993 9.35161C133.345 8.93006 133.711 8.51964 134.09 8.12099ZM168.148 4.75039C168.598 5.06643 169.037 5.39605 169.465 5.73941L166.608 9.30531C166.324 9.65898 165.803 9.7182 165.446 9.43766C165.09 9.15711 165.03 8.64216 165.313 8.2885L168.148 4.75039ZM163.723 2.24432C164.227 2.46827 164.723 2.70775 165.209 2.96114L163.194 6.70143C162.979 7.09975 162.479 7.25057 162.075 7.03824C161.674 6.82575 161.522 6.32993 161.737 5.93161L163.723 2.24432ZM147.227 0.650879L148.39 4.75677C148.512 5.19141 148.256 5.64322 147.817 5.76509C147.377 5.88712 146.921 5.63324 146.799 5.19844L145.629 1.06752C146.154 0.912445 146.686 0.773401 147.227 0.650879Z" fill="#FF8A00"/>
<path d="M65.152 146.709C79.555 146.709 91.2309 135.15 91.2309 120.892C91.2309 106.634 79.555 95.0757 65.152 95.0757C50.7491 95.0757 39.0732 106.634 39.0732 120.892C39.0732 135.15 50.7491 146.709 65.152 146.709Z" fill="#FED9A4"/>
<path fill-rule="evenodd" clip-rule="evenodd" d="M65.2954 100.62C76.5216 100.62 85.6368 109.643 85.6368 120.757C85.6368 131.87 76.5216 140.894 65.2954 140.894C64.8394 140.894 64.4692 141.26 64.4692 141.711C64.4692 142.163 64.8394 142.529 65.2954 142.529C77.4337 142.529 87.2892 132.773 87.2892 120.757C87.2892 108.74 77.4337 98.9839 65.2954 98.9839C64.8394 98.9839 64.4692 99.3503 64.4692 99.8018C64.4692 100.253 64.8394 100.62 65.2954 100.62Z" fill="#FF8A00"/>
<path fill-rule="evenodd" clip-rule="evenodd" d="M64.9758 140.894C53.7481 140.894 44.633 131.87 44.633 120.757C44.633 109.643 53.7481 100.62 64.9758 100.62C65.4318 100.62 65.802 100.253 65.802 99.8018C65.802 99.3503 65.4318 98.9839 64.9758 98.9839C52.8361 98.9839 42.9819 108.74 42.9819 120.757C42.9819 132.773 52.8361 142.529 64.9758 142.529C65.4318 142.529 65.802 142.163 65.802 141.711C65.802 141.26 65.4318 140.894 64.9758 140.894Z" fill="#FF8A00"/>
<path fill-rule="evenodd" clip-rule="evenodd" d="M68.3001 146.522L67.7663 142.268C67.7102 141.82 68.0324 141.412 68.4852 141.356C68.9379 141.3 69.3494 141.619 69.4072 142.067L69.9343 146.275C69.3956 146.374 68.8503 146.456 68.3001 146.522ZM73.1764 145.462L71.6991 141.147C71.5537 140.719 71.7851 140.254 72.218 140.11C72.6493 139.965 73.1186 140.194 73.264 140.622L74.733 144.91C74.2224 145.11 73.7035 145.294 73.1764 145.462ZM50.7843 142.428L53.0812 138.689C53.3175 138.304 53.8264 138.181 54.2164 138.416C54.6064 138.65 54.7303 139.154 54.494 139.539L52.1905 143.288C51.7113 143.016 51.242 142.729 50.7843 142.428ZM86.6173 135.559L82.8217 132.779C82.4565 132.51 82.3788 131.998 82.6498 131.635C82.9208 131.272 83.438 131.195 83.8049 131.464L87.5163 134.183C87.232 134.652 86.9313 135.111 86.6173 135.559ZM40.3756 128.937L44.8355 126.95C45.2503 126.765 45.741 126.949 45.9278 127.361C46.1145 127.772 45.9294 128.257 45.513 128.442L40.9424 130.479C40.7375 129.973 40.5474 129.459 40.3756 128.937ZM90.4658 114.629C90.598 115.156 90.7154 115.689 90.8145 116.228L86.4174 117.255C85.9745 117.358 85.5284 117.086 85.4243 116.646C85.3185 116.207 85.5945 115.766 86.0373 115.663L90.4658 114.629ZM43.611 106.353L47.5405 108.897C47.9222 109.144 48.0296 109.652 47.7801 110.03C47.5306 110.407 47.0184 110.513 46.6367 110.266L42.7237 107.732C43.0046 107.262 43.302 106.802 43.611 106.353ZM46.1756 103.197L49.3714 105.524C49.7383 105.791 49.8176 106.304 49.5466 106.667C49.2772 107.031 48.7584 107.109 48.3915 106.841L45.0784 104.428C45.4304 104.006 45.7972 103.596 46.1756 103.197ZM80.234 99.8266C80.6834 100.143 81.123 100.472 81.551 100.816L78.6939 104.381C78.4097 104.735 77.8892 104.794 77.5322 104.514C77.1753 104.233 77.1158 103.718 77.3984 103.365L80.234 99.8266ZM75.8088 97.3205C76.3127 97.5444 76.8085 97.7839 77.2943 98.0373L75.28 101.778C75.0651 102.176 74.5645 102.327 74.1613 102.114C73.7597 101.902 73.6077 101.406 73.8225 101.008L75.8088 97.3205ZM59.3125 95.7271L60.4758 99.8329C60.5981 100.268 60.342 100.719 59.9024 100.841C59.4629 100.963 59.0068 100.709 58.8845 100.275L57.7146 96.1437C58.2401 95.9886 58.7721 95.8496 59.3125 95.7271Z" fill="#FF8A00"/>
<path d="M421.364 111.545C435.767 111.545 447.443 99.9868 447.443 85.7287C447.443 71.4706 435.767 59.9121 421.364 59.9121C406.961 59.9121 395.285 71.4706 395.285 85.7287C395.285 99.9868 406.961 111.545 421.364 111.545Z" fill="#FED9A4"/>
<path fill-rule="evenodd" clip-rule="evenodd" d="M421.508 65.4561C432.734 65.4561 441.849 74.4792 441.849 85.593C441.849 96.7069 432.734 105.73 421.508 105.73C421.052 105.73 420.681 106.096 420.681 106.548C420.681 106.999 421.052 107.366 421.508 107.366C433.646 107.366 443.501 97.6098 443.501 85.593C443.501 73.5763 433.646 63.8203 421.508 63.8203C421.052 63.8203 420.681 64.1868 420.681 64.6382C420.681 65.0897 421.052 65.4561 421.508 65.4561Z" fill="#FF8A00"/>
<path fill-rule="evenodd" clip-rule="evenodd" d="M421.188 105.73C409.96 105.73 400.845 96.7069 400.845 85.593C400.845 74.4792 409.96 65.4561 421.188 65.4561C421.644 65.4561 422.014 65.0897 422.014 64.6382C422.014 64.1868 421.644 63.8203 421.188 63.8203C409.048 63.8203 399.194 73.5763 399.194 85.593C399.194 97.6098 409.048 107.366 421.188 107.366C421.644 107.366 422.014 106.999 422.014 106.548C422.014 106.096 421.644 105.73 421.188 105.73Z" fill="#FF8A00"/>
<path fill-rule="evenodd" clip-rule="evenodd" d="M424.512 111.358L423.978 107.105C423.922 106.657 424.244 106.248 424.697 106.192C425.15 106.137 425.561 106.455 425.619 106.903L426.146 111.111C425.608 111.21 425.062 111.293 424.512 111.358ZM429.388 110.299L427.911 105.983C427.766 105.556 427.997 105.091 428.43 104.946C428.861 104.801 429.331 105.031 429.476 105.458L430.945 109.746C430.434 109.946 429.916 110.131 429.388 110.299ZM406.996 107.265L409.293 103.526C409.53 103.14 410.038 103.017 410.428 103.252C410.818 103.487 410.942 103.99 410.706 104.376L408.403 108.125C407.923 107.852 407.454 107.565 406.996 107.265ZM442.829 100.396L439.034 97.6153C438.669 97.3467 438.591 96.8342 438.862 96.4712C439.133 96.1084 439.65 96.0318 440.017 96.3003L443.728 99.0193C443.444 99.4881 443.143 99.9473 442.829 100.396ZM396.588 93.7739L401.048 91.7869C401.462 91.6016 401.953 91.7854 402.14 92.197C402.327 92.6087 402.142 93.0933 401.725 93.2786L397.154 95.3154C396.95 94.8094 396.76 94.2956 396.588 93.7739ZM446.678 79.4653C446.81 79.9924 446.927 80.5256 447.027 81.0646L442.629 82.0911C442.187 82.1948 441.74 81.9221 441.636 81.4829C441.531 81.0435 441.807 80.6027 442.249 80.499L446.678 79.4653ZM399.823 71.1894L403.753 73.7337C404.134 73.9809 404.242 74.4882 403.992 74.866C403.743 75.2438 403.23 75.3499 402.849 75.1027L398.936 72.5687C399.217 72.0989 399.514 71.6389 399.823 71.1894ZM402.388 68.0336L405.584 70.36C405.95 70.6275 406.03 71.14 405.759 71.5035C405.489 71.8671 404.97 71.9451 404.604 71.6777L401.291 69.2642C401.642 68.8427 402.009 68.4322 402.388 68.0336ZM436.446 64.663C436.895 64.979 437.335 65.3086 437.763 65.652L434.906 69.2179C434.622 69.5716 434.101 69.6308 433.744 69.3503C433.387 69.0697 433.328 68.5548 433.61 68.2011L436.446 64.663ZM432.021 62.1569C432.525 62.3809 433.021 62.6203 433.506 62.8737L431.492 66.614C431.277 67.0123 430.777 67.1632 430.373 66.9508C429.972 66.7383 429.82 66.2425 430.035 65.8442L432.021 62.1569ZM415.525 60.5635L416.688 64.6694C416.81 65.104 416.554 65.5558 416.114 65.6777C415.675 65.7997 415.219 65.5458 415.097 65.111L413.927 60.9801C414.452 60.825 414.984 60.686 415.525 60.5635Z" fill="#FF8A00"/>
<path fill-rule="evenodd" clip-rule="evenodd" d="M328.942 54.1353V50.0632C328.942 49.3895 329.489 48.8428 330.162 48.8428C330.836 48.8428 331.383 49.3895 331.383 50.0632V54.1353H335.454C336.128 54.1353 336.674 54.682 336.674 55.3557C336.674 56.0291 336.128 56.5761 335.454 56.5761H331.383V60.6482C331.383 61.3216 330.836 61.8686 330.162 61.8686C329.489 61.8686 328.942 61.3216 328.942 60.6482V56.5761H324.868C324.194 56.5761 323.648 56.0291 323.648 55.3557C323.648 54.682 324.194 54.1353 324.868 54.1353H328.942Z" fill="#FD9500"/>
<path fill-rule="evenodd" clip-rule="evenodd" d="M129.673 100.371V96.2985C129.673 95.6249 130.22 95.0781 130.894 95.0781C131.567 95.0781 132.114 95.6249 132.114 96.2985V100.371H136.186C136.859 100.371 137.406 100.917 137.406 101.591C137.406 102.264 136.859 102.811 136.186 102.811H132.114V106.884C132.114 107.557 131.567 108.104 130.894 108.104C130.22 108.104 129.673 107.557 129.673 106.884V102.811H125.6C124.926 102.811 124.379 102.264 124.379 101.591C124.379 100.917 124.926 100.371 125.6 100.371H129.673Z" fill="#FD9500"/>
<path fill-rule="evenodd" clip-rule="evenodd" d="M408.392 142.048V137.976C408.392 137.303 408.938 136.756 409.612 136.756C410.286 136.756 410.832 137.303 410.832 137.976V142.048H414.904C415.577 142.048 416.124 142.595 416.124 143.269C416.124 143.942 415.577 144.489 414.904 144.489H410.832V148.561C410.832 149.235 410.286 149.782 409.612 149.782C408.938 149.782 408.392 149.235 408.392 148.561V144.489H404.318C403.644 144.489 403.097 143.942 403.097 143.269C403.097 142.595 403.644 142.048 404.318 142.048H408.392Z" fill="#FD9500"/>
</svg>
