<svg width="80" height="80" viewBox="0 0 80 80" fill="none" xmlns="http://www.w3.org/2000/svg">
<path d="M33.3333 59.9998C34.2174 59.9998 35.0652 59.6487 35.6904 59.0235C36.3155 58.3984 36.6667 57.5506 36.6667 56.6665V36.6665C36.6667 35.7825 36.3155 34.9346 35.6904 34.3095C35.0652 33.6844 34.2174 33.3332 33.3333 33.3332C32.4493 33.3332 31.6014 33.6844 30.9763 34.3095C30.3512 34.9346 30 35.7825 30 36.6665V56.6665C30 57.5506 30.3512 58.3984 30.9763 59.0235C31.6014 59.6487 32.4493 59.9998 33.3333 59.9998ZM66.6667 19.9998H53.3333V16.6665C53.3333 14.0143 52.2798 11.4708 50.4044 9.59544C48.529 7.72007 45.9855 6.6665 43.3333 6.6665H36.6667C34.0145 6.6665 31.471 7.72007 29.5956 9.59544C27.7202 11.4708 26.6667 14.0143 26.6667 16.6665V19.9998H13.3333C12.4493 19.9998 11.6014 20.351 10.9763 20.9761C10.3512 21.6013 10 22.4491 10 23.3332C10 24.2172 10.3512 25.0651 10.9763 25.6902C11.6014 26.3153 12.4493 26.6665 13.3333 26.6665H16.6667V63.3332C16.6667 65.9853 17.7202 68.5289 19.5956 70.4042C21.471 72.2796 24.0145 73.3332 26.6667 73.3332H53.3333C55.9855 73.3332 58.529 72.2796 60.4044 70.4042C62.2798 68.5289 63.3333 65.9853 63.3333 63.3332V26.6665H66.6667C67.5507 26.6665 68.3986 26.3153 69.0237 25.6902C69.6488 25.0651 70 24.2172 70 23.3332C70 22.4491 69.6488 21.6013 69.0237 20.9761C68.3986 20.351 67.5507 19.9998 66.6667 19.9998ZM33.3333 16.6665C33.3333 15.7824 33.6845 14.9346 34.3096 14.3095C34.9348 13.6844 35.7826 13.3332 36.6667 13.3332H43.3333C44.2174 13.3332 45.0652 13.6844 45.6904 14.3095C46.3155 14.9346 46.6667 15.7824 46.6667 16.6665V19.9998H33.3333V16.6665ZM56.6667 63.3332C56.6667 64.2172 56.3155 65.0651 55.6904 65.6902C55.0652 66.3153 54.2174 66.6665 53.3333 66.6665H26.6667C25.7826 66.6665 24.9348 66.3153 24.3096 65.6902C23.6845 65.0651 23.3333 64.2172 23.3333 63.3332V26.6665H56.6667V63.3332ZM46.6667 59.9998C47.5507 59.9998 48.3986 59.6487 49.0237 59.0235C49.6488 58.3984 50 57.5506 50 56.6665V36.6665C50 35.7825 49.6488 34.9346 49.0237 34.3095C48.3986 33.6844 47.5507 33.3332 46.6667 33.3332C45.7826 33.3332 44.9348 33.6844 44.3096 34.3095C43.6845 34.9346 43.3333 35.7825 43.3333 36.6665V56.6665C43.3333 57.5506 43.6845 58.3984 44.3096 59.0235C44.9348 59.6487 45.7826 59.9998 46.6667 59.9998Z" fill="#EF4444"/>
</svg>
